{
	"asset":{
		"generator":"Khronos glTF Blender I/O v4.5.48",
		"version":"2.0"
	},
	"scene":0,
	"scenes":[
		{
			"name":"Scene",
			"nodes":[
				0
			]
		}
	],
	"nodes":[
		{
			"mesh":0,
			"name":"Batu"
		}
	],
	"materials":[
		{
			"doubleSided":true,
			"name":"Batu",
			"pbrMetallicRoughness":{
				"baseColorFactor":[
					0.21585901081562042,
					0.21586070954799652,
					0.21586059033870697,
					1
				],
				"metallicFactor":0,
				"roughnessFactor":0.5
			}
		}
	],
	"meshes":[
		{
			"name":"Cube.002",
			"primitives":[
				{
					"attributes":{
						"POSITION":0,
						"NORMAL":1,
						"TEXCOORD_0":2
					},
					"indices":3,
					"material":0
				}
			]
		}
	],
	"accessors":[
		{
			"bufferView":0,
			"componentType":5126,
			"count":772,
			"max":[
				0.033925462514162064,
				0.020005319267511368,
				0.03857331722974777
			],
			"min":[
				-0.03658336400985718,
				-0.030322642996907234,
				-0.05269911140203476
			],
			"type":"VEC3"
		},
		{
			"bufferView":1,
			"componentType":5126,
			"count":772,
			"type":"VEC3"
		},
		{
			"bufferView":2,
			"componentType":5126,
			"count":772,
			"type":"VEC2"
		},
		{
			"bufferView":3,
			"componentType":5123,
			"count":948,
			"type":"SCALAR"
		}
	],
	"bufferViews":[
		{
			"buffer":0,
			"byteLength":9264,
			"byteOffset":0,
			"target":34962
		},
		{
			"buffer":0,
			"byteLength":9264,
			"byteOffset":9264,
			"target":34962
		},
		{
			"buffer":0,
			"byteLength":6176,
			"byteOffset":18528,
			"target":34962
		},
		{
			"buffer":0,
			"byteLength":1896,
			"byteOffset":24704,
			"target":34963
		}
	],
	"buffers":[
		{
			"byteLength":26600,
			"uri":"Batu.bin"
		}
	]
}
