{
	"asset":{
		"generator":"Khronos glTF Blender I/O v4.5.48",
		"version":"2.0"
	},
	"scene":0,
	"scenes":[
		{
			"name":"Scene",
			"nodes":[
				0,
				1
			]
		}
	],
	"nodes":[
		{
			"mesh":0,
			"name":"Ketapel"
		},
		{
			"mesh":1,
			"name":"Karet",
			"rotation":[
				-0.5298110842704773,
				0,
				0,
				0.8481157422065735
			],
			"translation":[
				0,
				0.3669009208679199,
				-0.0002640940365381539
			]
		}
	],
	"animations":[
		{
			"channels":[
				{
					"sampler":0,
					"target":{
						"node":1,
						"path":"translation"
					}
				},
				{
					"sampler":1,
					"target":{
						"node":1,
						"path":"rotation"
					}
				},
				{
					"sampler":2,
					"target":{
						"node":1,
						"path":"scale"
					}
				}
			],
			"name":"Shoot",
			"samplers":[
				{
					"input":12,
					"interpolation":"STEP",
					"output":13
				},
				{
					"input":14,
					"interpolation":"LINEAR",
					"output":15
				},
				{
					"input":14,
					"interpolation":"LINEAR",
					"output":16
				}
			]
		}
	],
	"materials":[
		{
			"doubleSided":true,
			"name":"Kayu",
			"pbrMetallicRoughness":{
				"baseColorFactor":[
					0.25059282779693604,
					0.08093436062335968,
					0.044566236436367035,
					1
				],
				"metallicFactor":0,
				"roughnessFactor":0.5
			}
		},
		{
			"doubleSided":true,
			"name":"Karet",
			"pbrMetallicRoughness":{
				"baseColorFactor":[
					0.036653175950050354,
					0.036653175950050354,
					0.036653175950050354,
					1
				],
				"metallicFactor":0,
				"roughnessFactor":0.5
			}
		}
	],
	"meshes":[
		{
			"name":"Cube.001",
			"primitives":[
				{
					"attributes":{
						"POSITION":0,
						"NORMAL":1,
						"TEXCOORD_0":2
					},
					"indices":3,
					"material":0
				},
				{
					"attributes":{
						"POSITION":4,
						"NORMAL":5,
						"TEXCOORD_0":6
					},
					"indices":7,
					"material":1
				}
			]
		},
		{
			"name":"Cylinder.001",
			"primitives":[
				{
					"attributes":{
						"POSITION":8,
						"NORMAL":9,
						"TEXCOORD_0":10
					},
					"indices":11,
					"material":1
				}
			]
		}
	],
	"accessors":[
		{
			"bufferView":0,
			"componentType":5126,
			"count":1046,
			"max":[
				0.12370428442955017,
				0.40723636746406555,
				0.02530226856470108
			],
			"min":[
				-0.12370427697896957,
				9.826042514760047e-05,
				-0.02530226856470108
			],
			"type":"VEC3"
		},
		{
			"bufferView":1,
			"componentType":5126,
			"count":1046,
			"type":"VEC3"
		},
		{
			"bufferView":2,
			"componentType":5126,
			"count":1046,
			"type":"VEC2"
		},
		{
			"bufferView":3,
			"componentType":5123,
			"count":5184,
			"type":"SCALAR"
		},
		{
			"bufferView":4,
			"componentType":5126,
			"count":648,
			"max":[
				0.11881899833679199,
				0.3973473906517029,
				0.023486169055104256
			],
			"min":[
				-0.11881900578737259,
				0.3451416790485382,
				-0.024015305563807487
			],
			"type":"VEC3"
		},
		{
			"bufferView":5,
			"componentType":5126,
			"count":648,
			"type":"VEC3"
		},
		{
			"bufferView":6,
			"componentType":5126,
			"count":648,
			"type":"VEC2"
		},
		{
			"bufferView":7,
			"componentType":5123,
			"count":3048,
			"type":"SCALAR"
		},
		{
			"bufferView":8,
			"componentType":5126,
			"count":666,
			"max":[
				0.1008947566151619,
				0.03456319123506546,
				0.00024393387138843536
			],
			"min":[
				-0.10089477896690369,
				-0.03456319123506546,
				-0.3621399402618408
			],
			"type":"VEC3"
		},
		{
			"bufferView":9,
			"componentType":5126,
			"count":666,
			"type":"VEC3"
		},
		{
			"bufferView":10,
			"componentType":5126,
			"count":666,
			"type":"VEC2"
		},
		{
			"bufferView":11,
			"componentType":5123,
			"count":3564,
			"type":"SCALAR"
		},
		{
			"bufferView":12,
			"componentType":5126,
			"count":2,
			"max":[
				0.6666666666666666
			],
			"min":[
				0.041666666666666664
			],
			"type":"SCALAR"
		},
		{
			"bufferView":13,
			"componentType":5126,
			"count":2,
			"type":"VEC3"
		},
		{
			"bufferView":14,
			"componentType":5126,
			"count":16,
			"max":[
				0.6666666666666666
			],
			"min":[
				0.041666666666666664
			],
			"type":"SCALAR"
		},
		{
			"bufferView":15,
			"componentType":5126,
			"count":16,
			"type":"VEC4"
		},
		{
			"bufferView":16,
			"componentType":5126,
			"count":16,
			"type":"VEC3"
		}
	],
	"bufferViews":[
		{
			"buffer":0,
			"byteLength":12552,
			"byteOffset":0,
			"target":34962
		},
		{
			"buffer":0,
			"byteLength":12552,
			"byteOffset":12552,
			"target":34962
		},
		{
			"buffer":0,
			"byteLength":8368,
			"byteOffset":25104,
			"target":34962
		},
		{
			"buffer":0,
			"byteLength":10368,
			"byteOffset":33472,
			"target":34963
		},
		{
			"buffer":0,
			"byteLength":7776,
			"byteOffset":43840,
			"target":34962
		},
		{
			"buffer":0,
			"byteLength":7776,
			"byteOffset":51616,
			"target":34962
		},
		{
			"buffer":0,
			"byteLength":5184,
			"byteOffset":59392,
			"target":34962
		},
		{
			"buffer":0,
			"byteLength":6096,
			"byteOffset":64576,
			"target":34963
		},
		{
			"buffer":0,
			"byteLength":7992,
			"byteOffset":70672,
			"target":34962
		},
		{
			"buffer":0,
			"byteLength":7992,
			"byteOffset":78664,
			"target":34962
		},
		{
			"buffer":0,
			"byteLength":5328,
			"byteOffset":86656,
			"target":34962
		},
		{
			"buffer":0,
			"byteLength":7128,
			"byteOffset":91984,
			"target":34963
		},
		{
			"buffer":0,
			"byteLength":8,
			"byteOffset":99112
		},
		{
			"buffer":0,
			"byteLength":24,
			"byteOffset":99120
		},
		{
			"buffer":0,
			"byteLength":64,
			"byteOffset":99144
		},
		{
			"buffer":0,
			"byteLength":256,
			"byteOffset":99208
		},
		{
			"buffer":0,
			"byteLength":192,
			"byteOffset":99464
		}
	],
	"buffers":[
		{
			"byteLength":99656,
			"uri":"Ketapel.bin"
		}
	]
}
