{
	"asset":{
		"generator":"Khronos glTF Blender I/O v4.5.48",
		"version":"2.0"
	},
	"scene":0,
	"scenes":[
		{
			"name":"Scene",
			"nodes":[
				0,
				1
			]
		}
	],
	"nodes":[
		{
			"mesh":0,
			"name":"Plane.001"
		},
		{
			"mesh":1,
			"name":"Plane.002"
		}
	],
	"materials":[
		{
			"doubleSided":true,
			"name":"Rumput",
			"pbrMetallicRoughness":{
				"baseColorFactor":[
					0.08209562301635742,
					0.1893448531627655,
					0.03230265527963638,
					1
				],
				"metallicFactor":0,
				"roughnessFactor":0.5
			}
		},
		{
			"doubleSided":true,
			"name":"Tanah",
			"pbrMetallicRoughness":{
				"baseColorFactor":[
					0.334011048078537,
					0.08172813057899475,
					0.014540711417794228,
					1
				],
				"metallicFactor":0,
				"roughnessFactor":0.5
			}
		},
		{
			"doubleSided":true,
			"name":"Hitam Baja",
			"pbrMetallicRoughness":{
				"baseColorFactor":[
					0.00790735799819231,
					0.00790735799819231,
					0.00790735799819231,
					1
				],
				"metallicFactor":0,
				"roughnessFactor":0.5
			}
		},
		{
			"doubleSided":true,
			"name":"Kayu.001",
			"pbrMetallicRoughness":{
				"baseColorFactor":[
					0.17660686373710632,
					0.10474666953086853,
					0.07409513741731644,
					1
				],
				"metallicFactor":0,
				"roughnessFactor":0.5
			}
		},
		{
			"doubleSided":true,
			"name":"Daun.001",
			"pbrMetallicRoughness":{
				"baseColorFactor":[
					0.0885009765625,
					0.1153564453125,
					0.037200927734375,
					1
				],
				"metallicFactor":0,
				"roughnessFactor":0.5
			}
		},
		{
			"doubleSided":true,
			"name":"Kayu.002",
			"pbrMetallicRoughness":{
				"baseColorFactor":[
					0.2661654055118561,
					0.15741971135139465,
					0.11157404631376266,
					1
				],
				"metallicFactor":0,
				"roughnessFactor":0.5
			}
		},
		{
			"doubleSided":true,
			"name":"Daun.002",
			"pbrMetallicRoughness":{
				"baseColorFactor":[
					0.1571044921875,
					0.2181396484375,
					0.0638427734375,
					1
				],
				"metallicFactor":0,
				"roughnessFactor":0.5
			}
		},
		{
			"doubleSided":true,
			"name":"Kayu",
			"pbrMetallicRoughness":{
				"baseColorFactor":[
					0.0946044921875,
					0.04644775390625,
					0.032012939453125,
					1
				],
				"metallicFactor":0,
				"roughnessFactor":0.5
			}
		},
		{
			"doubleSided":true,
			"name":"Daun",
			"pbrMetallicRoughness":{
				"baseColorFactor":[
					0.07855224609375,
					0.1021728515625,
					0.032562255859375,
					1
				],
				"metallicFactor":0,
				"roughnessFactor":0.5
			}
		}
	],
	"meshes":[
		{
			"name":"Plane.003",
			"primitives":[
				{
					"attributes":{
						"POSITION":0,
						"NORMAL":1,
						"TEXCOORD_0":2
					},
					"indices":3,
					"material":0
				},
				{
					"attributes":{
						"POSITION":4,
						"NORMAL":5,
						"TEXCOORD_0":6
					},
					"indices":7,
					"material":1
				},
				{
					"attributes":{
						"POSITION":8,
						"NORMAL":9,
						"TEXCOORD_0":10
					},
					"indices":11,
					"material":2
				},
				{
					"attributes":{
						"POSITION":12,
						"NORMAL":13,
						"TEXCOORD_0":14
					},
					"indices":15,
					"material":3
				},
				{
					"attributes":{
						"POSITION":16,
						"NORMAL":17,
						"TEXCOORD_0":18
					},
					"indices":19,
					"material":4
				},
				{
					"attributes":{
						"POSITION":20,
						"NORMAL":21,
						"TEXCOORD_0":22
					},
					"indices":23,
					"material":5
				},
				{
					"attributes":{
						"POSITION":24,
						"NORMAL":25,
						"TEXCOORD_0":26
					},
					"indices":27,
					"material":6
				},
				{
					"attributes":{
						"POSITION":28,
						"NORMAL":29,
						"TEXCOORD_0":30
					},
					"indices":31,
					"material":7
				},
				{
					"attributes":{
						"POSITION":32,
						"NORMAL":33,
						"TEXCOORD_0":34
					},
					"indices":35,
					"material":8
				}
			]
		},
		{
			"name":"Plane.001",
			"primitives":[
				{
					"attributes":{
						"POSITION":36,
						"NORMAL":37,
						"TEXCOORD_0":38
					},
					"indices":39,
					"material":2
				}
			]
		}
	],
	"accessors":[
		{
			"bufferView":0,
			"componentType":5126,
			"count":90,
			"max":[
				299.7321472167969,
				10.37633228302002,
				74.78056335449219
			],
			"min":[
				-299.7321472167969,
				0,
				-156.99063110351562
			],
			"type":"VEC3"
		},
		{
			"bufferView":1,
			"componentType":5126,
			"count":90,
			"type":"VEC3"
		},
		{
			"bufferView":2,
			"componentType":5126,
			"count":90,
			"type":"VEC2"
		},
		{
			"bufferView":3,
			"componentType":5123,
			"count":234,
			"type":"SCALAR"
		},
		{
			"bufferView":4,
			"componentType":5126,
			"count":144,
			"max":[
				299.7321472167969,
				2.031130313873291,
				184.2528076171875
			],
			"min":[
				-299.7321472167969,
				0,
				-142.81153869628906
			],
			"type":"VEC3"
		},
		{
			"bufferView":5,
			"componentType":5126,
			"count":144,
			"type":"VEC3"
		},
		{
			"bufferView":6,
			"componentType":5126,
			"count":144,
			"type":"VEC2"
		},
		{
			"bufferView":7,
			"componentType":5123,
			"count":534,
			"type":"SCALAR"
		},
		{
			"bufferView":8,
			"componentType":5126,
			"count":1284,
			"max":[
				3.6478424072265625,
				2.0311121940612793,
				14.888586044311523
			],
			"min":[
				-122.35031127929688,
				0.2850431203842163,
				-60.44781494140625
			],
			"type":"VEC3"
		},
		{
			"bufferView":9,
			"componentType":5126,
			"count":1284,
			"type":"VEC3"
		},
		{
			"bufferView":10,
			"componentType":5126,
			"count":1284,
			"type":"VEC2"
		},
		{
			"bufferView":11,
			"componentType":5123,
			"count":3720,
			"type":"SCALAR"
		},
		{
			"bufferView":12,
			"componentType":5126,
			"count":19024,
			"max":[
				282.6847839355469,
				11.846155166625977,
				36.43364715576172
			],
			"min":[
				-282.6847839355469,
				-2.9108406351952e-08,
				-143.44419860839844
			],
			"type":"VEC3"
		},
		{
			"bufferView":13,
			"componentType":5126,
			"count":19024,
			"type":"VEC3"
		},
		{
			"bufferView":14,
			"componentType":5126,
			"count":19024,
			"type":"VEC2"
		},
		{
			"bufferView":15,
			"componentType":5123,
			"count":42312,
			"type":"SCALAR"
		},
		{
			"bufferView":16,
			"componentType":5126,
			"count":126772,
			"max":[
				284.4122314453125,
				13.115314483642578,
				36.9989013671875
			],
			"min":[
				-284.4122619628906,
				5.102514266967773,
				-144.03646850585938
			],
			"type":"VEC3"
		},
		{
			"bufferView":17,
			"componentType":5126,
			"count":126772,
			"type":"VEC3"
		},
		{
			"bufferView":18,
			"componentType":5126,
			"count":126772,
			"type":"VEC2"
		},
		{
			"bufferView":19,
			"componentType":5125,
			"count":196800,
			"type":"SCALAR"
		},
		{
			"bufferView":20,
			"componentType":5126,
			"count":17776,
			"max":[
				280.45123291015625,
				9.77447509765625,
				37.786766052246094
			],
			"min":[
				-280.4512023925781,
				-0.03812456130981445,
				-142.35040283203125
			],
			"type":"VEC3"
		},
		{
			"bufferView":21,
			"componentType":5126,
			"count":17776,
			"type":"VEC3"
		},
		{
			"bufferView":22,
			"componentType":5126,
			"count":17776,
			"type":"VEC2"
		},
		{
			"bufferView":23,
			"componentType":5123,
			"count":34848,
			"type":"SCALAR"
		},
		{
			"bufferView":24,
			"componentType":5126,
			"count":43032,
			"max":[
				282.6267395019531,
				11.96597957611084,
				39.26545715332031
			],
			"min":[
				-282.6267395019531,
				5.9165358543396,
				-143.85784912109375
			],
			"type":"VEC3"
		},
		{
			"bufferView":25,
			"componentType":5126,
			"count":43032,
			"type":"VEC3"
		},
		{
			"bufferView":26,
			"componentType":5126,
			"count":43032,
			"type":"VEC2"
		},
		{
			"bufferView":27,
			"componentType":5123,
			"count":63360,
			"type":"SCALAR"
		},
		{
			"bufferView":28,
			"componentType":5126,
			"count":8556,
			"max":[
				263.0882263183594,
				13.638053894042969,
				31.346656799316406
			],
			"min":[
				-263.0882263183594,
				-0.059746451675891876,
				-127.32331085205078
			],
			"type":"VEC3"
		},
		{
			"bufferView":29,
			"componentType":5126,
			"count":8556,
			"type":"VEC3"
		},
		{
			"bufferView":30,
			"componentType":5126,
			"count":8556,
			"type":"VEC2"
		},
		{
			"bufferView":31,
			"componentType":5123,
			"count":26172,
			"type":"SCALAR"
		},
		{
			"bufferView":32,
			"componentType":5126,
			"count":83976,
			"max":[
				264.74993896484375,
				13.94029712677002,
				32.96980285644531
			],
			"min":[
				-264.74993896484375,
				1.806870937347412,
				-128.95794677734375
			],
			"type":"VEC3"
		},
		{
			"bufferView":33,
			"componentType":5126,
			"count":83976,
			"type":"VEC3"
		},
		{
			"bufferView":34,
			"componentType":5126,
			"count":83976,
			"type":"VEC2"
		},
		{
			"bufferView":35,
			"componentType":5125,
			"count":209808,
			"type":"SCALAR"
		},
		{
			"bufferView":36,
			"componentType":5126,
			"count":642,
			"max":[
				122.35030364990234,
				2.0311124324798584,
				14.888586044311523
			],
			"min":[
				121.58844757080078,
				0.28504347801208496,
				7.388586044311523
			],
			"type":"VEC3"
		},
		{
			"bufferView":37,
			"componentType":5126,
			"count":642,
			"type":"VEC3"
		},
		{
			"bufferView":38,
			"componentType":5126,
			"count":642,
			"type":"VEC2"
		},
		{
			"bufferView":39,
			"componentType":5123,
			"count":1860,
			"type":"SCALAR"
		}
	],
	"bufferViews":[
		{
			"buffer":0,
			"byteLength":1080,
			"byteOffset":0,
			"target":34962
		},
		{
			"buffer":0,
			"byteLength":1080,
			"byteOffset":1080,
			"target":34962
		},
		{
			"buffer":0,
			"byteLength":720,
			"byteOffset":2160,
			"target":34962
		},
		{
			"buffer":0,
			"byteLength":468,
			"byteOffset":2880,
			"target":34963
		},
		{
			"buffer":0,
			"byteLength":1728,
			"byteOffset":3348,
			"target":34962
		},
		{
			"buffer":0,
			"byteLength":1728,
			"byteOffset":5076,
			"target":34962
		},
		{
			"buffer":0,
			"byteLength":1152,
			"byteOffset":6804,
			"target":34962
		},
		{
			"buffer":0,
			"byteLength":1068,
			"byteOffset":7956,
			"target":34963
		},
		{
			"buffer":0,
			"byteLength":15408,
			"byteOffset":9024,
			"target":34962
		},
		{
			"buffer":0,
			"byteLength":15408,
			"byteOffset":24432,
			"target":34962
		},
		{
			"buffer":0,
			"byteLength":10272,
			"byteOffset":39840,
			"target":34962
		},
		{
			"buffer":0,
			"byteLength":7440,
			"byteOffset":50112,
			"target":34963
		},
		{
			"buffer":0,
			"byteLength":228288,
			"byteOffset":57552,
			"target":34962
		},
		{
			"buffer":0,
			"byteLength":228288,
			"byteOffset":285840,
			"target":34962
		},
		{
			"buffer":0,
			"byteLength":152192,
			"byteOffset":514128,
			"target":34962
		},
		{
			"buffer":0,
			"byteLength":84624,
			"byteOffset":666320,
			"target":34963
		},
		{
			"buffer":0,
			"byteLength":1521264,
			"byteOffset":750944,
			"target":34962
		},
		{
			"buffer":0,
			"byteLength":1521264,
			"byteOffset":2272208,
			"target":34962
		},
		{
			"buffer":0,
			"byteLength":1014176,
			"byteOffset":3793472,
			"target":34962
		},
		{
			"buffer":0,
			"byteLength":787200,
			"byteOffset":4807648,
			"target":34963
		},
		{
			"buffer":0,
			"byteLength":213312,
			"byteOffset":5594848,
			"target":34962
		},
		{
			"buffer":0,
			"byteLength":213312,
			"byteOffset":5808160,
			"target":34962
		},
		{
			"buffer":0,
			"byteLength":142208,
			"byteOffset":6021472,
			"target":34962
		},
		{
			"buffer":0,
			"byteLength":69696,
			"byteOffset":6163680,
			"target":34963
		},
		{
			"buffer":0,
			"byteLength":516384,
			"byteOffset":6233376,
			"target":34962
		},
		{
			"buffer":0,
			"byteLength":516384,
			"byteOffset":6749760,
			"target":34962
		},
		{
			"buffer":0,
			"byteLength":344256,
			"byteOffset":7266144,
			"target":34962
		},
		{
			"buffer":0,
			"byteLength":126720,
			"byteOffset":7610400,
			"target":34963
		},
		{
			"buffer":0,
			"byteLength":102672,
			"byteOffset":7737120,
			"target":34962
		},
		{
			"buffer":0,
			"byteLength":102672,
			"byteOffset":7839792,
			"target":34962
		},
		{
			"buffer":0,
			"byteLength":68448,
			"byteOffset":7942464,
			"target":34962
		},
		{
			"buffer":0,
			"byteLength":52344,
			"byteOffset":8010912,
			"target":34963
		},
		{
			"buffer":0,
			"byteLength":1007712,
			"byteOffset":8063256,
			"target":34962
		},
		{
			"buffer":0,
			"byteLength":1007712,
			"byteOffset":9070968,
			"target":34962
		},
		{
			"buffer":0,
			"byteLength":671808,
			"byteOffset":10078680,
			"target":34962
		},
		{
			"buffer":0,
			"byteLength":839232,
			"byteOffset":10750488,
			"target":34963
		},
		{
			"buffer":0,
			"byteLength":7704,
			"byteOffset":11589720,
			"target":34962
		},
		{
			"buffer":0,
			"byteLength":7704,
			"byteOffset":11597424,
			"target":34962
		},
		{
			"buffer":0,
			"byteLength":5136,
			"byteOffset":11605128,
			"target":34962
		},
		{
			"buffer":0,
			"byteLength":3720,
			"byteOffset":11610264,
			"target":34963
		}
	],
	"buffers":[
		{
			"byteLength":11613984,
			"uri":"Map.bin"
		}
	]
}
